<svg height="94" viewBox="0 0 94 94" width="94" xmlns="http://www.w3.org/2000/svg"><g fill="none"><circle cx="46.783" cy="46.783" fill="#e16426" r="46.783"/><path d="m25.822 25.302h42.512v15.276h-42.512z" fill="#fff"/><path d="m25.822 52.868h42.512v15.277h-42.512z" fill="#fff"/><g fill="#944022"><path d="m63.175 20.996h-41.517v7.903h41.332c2.296 0 4.16 1.863 4.16 4.159s-1.863 4.157-4.16 4.157h-41.332v7.903h41.517c6.661 0 12.061-5.401 12.061-12.062-.002-6.659-5.4-12.06-12.061-12.06z"/><path d="m63.175 48.446h-41.517v7.9h41.332c2.296 0 4.16 1.862 4.16 4.161 0 2.294-1.863 4.157-4.16 4.157h-41.332v7.903h41.517c6.661 0 12.061-5.399 12.061-12.062-.002-6.657-5.4-12.059-12.061-12.059z"/></g></g></svg>