<?xml version="1.0" standalone="no"?>
<!DOCTYPE svg PUBLIC "-//W3C//DTD SVG 20010904//EN"
 "http://www.w3.org/TR/2001/REC-SVG-20010904/DTD/svg10.dtd">
<svg version="1.0" xmlns="http://www.w3.org/2000/svg"
 width="500.000000pt" height="500.000000pt" viewBox="0 0 500.000000 500.000000"
 preserveAspectRatio="xMidYMid meet">
<metadata>
Created by potrace 1.13, written by Peter Selinger 2001-2015
</metadata>
<g transform="translate(0.000000,500.000000) scale(0.100000,-0.100000)"
fill="#264DE4" stroke="none">
<path d="M0 2500 l0 -2500 2500 0 2500 0 0 2500 0 2500 -2500 0 -2500 0 0
-2500z m1775 -795 c217 -41 382 -193 430 -397 8 -35 15 -66 15 -70 0 -5 -67
-8 -148 -8 l-149 0 -12 42 c-9 27 -32 61 -70 98 -72 73 -131 95 -237 88 -208
-14 -329 -180 -328 -453 1 -157 44 -275 129 -354 69 -63 124 -84 220 -85 135
0 218 51 271 169 12 27 26 67 29 88 l7 37 150 0 149 0 -6 -48 c-11 -76 -58
-204 -99 -265 -72 -108 -187 -187 -321 -222 -79 -20 -263 -21 -349 -1 -138 32
-273 121 -351 231 -92 128 -135 274 -135 456 0 479 350 781 805 694z m1290 0
c210 -44 342 -178 362 -366 l6 -59 -152 0 -151 0 0 25 c0 72 -68 145 -153 166
-27 6 -82 9 -122 7 -115 -8 -178 -59 -178 -145 0 -83 38 -103 346 -184 220
-57 285 -88 361 -170 72 -78 89 -129 84 -257 -4 -123 -35 -198 -113 -271 -105
-100 -235 -142 -440 -142 -344 0 -550 149 -579 419 l-7 62 151 0 c146 0 150 0
150 -21 0 -85 70 -174 161 -205 71 -24 196 -24 265 -1 107 37 153 131 101 208
-33 48 -106 80 -307 133 -268 71 -377 133 -438 251 -24 45 -26 61 -27 155 0
95 3 110 28 163 55 111 159 190 299 227 90 23 254 26 353 5z m1219 0 c219 -46
365 -202 366 -387 l0 -38 -150 0 -150 0 0 25 c0 72 -66 145 -150 165 -29 7
-84 10 -125 8 -116 -8 -175 -57 -175 -146 0 -83 35 -101 340 -182 213 -55 283
-87 354 -158 82 -82 114 -187 95 -318 -13 -90 -49 -162 -112 -222 -107 -101
-237 -143 -442 -143 -98 0 -149 5 -208 20 -218 56 -353 200 -365 387 l-5 74
145 0 145 0 7 -41 c21 -132 119 -201 286 -202 108 -1 162 15 211 61 69 65 63
147 -15 203 -40 30 -98 49 -334 113 -214 58 -314 121 -369 235 -25 50 -28 67
-28 156 0 89 3 106 28 156 54 111 161 193 299 229 90 23 254 26 352 5z"/>
</g>
</svg>
