<svg height="500pt" preserveAspectRatio="xMidYMid meet" viewBox="0 0 500 500" width="500pt" xmlns="http://www.w3.org/2000/svg"><path d="m0 2500v-2500h2500 2500v2500 2500h-2500-2500zm1775-795c217-41 382-193 430-397 8-35 15-66 15-70 0-5-67-8-148-8h-149l-12 42c-9 27-32 61-70 98-72 73-131 95-237 88-208-14-329-180-328-453 1-157 44-275 129-354 69-63 124-84 220-85 135 0 218 51 271 169 12 27 26 67 29 88l7 37h150 149l-6-48c-11-76-58-204-99-265-72-108-187-187-321-222-79-20-263-21-349-1-138 32-273 121-351 231-92 128-135 274-135 456 0 479 350 781 805 694zm1290 0c210-44 342-178 362-366l6-59h-152-151v25c0 72-68 145-153 166-27 6-82 9-122 7-115-8-178-59-178-145 0-83 38-103 346-184 220-57 285-88 361-170 72-78 89-129 84-257-4-123-35-198-113-271-105-100-235-142-440-142-344 0-550 149-579 419l-7 62h151c146 0 150 0 150-21 0-85 70-174 161-205 71-24 196-24 265-1 107 37 153 131 101 208-33 48-106 80-307 133-268 71-377 133-438 251-24 45-26 61-27 155 0 95 3 110 28 163 55 111 159 190 299 227 90 23 254 26 353 5zm1219 0c219-46 365-202 366-387v-38h-150-150v25c0 72-66 145-150 165-29 7-84 10-125 8-116-8-175-57-175-146 0-83 35-101 340-182 213-55 283-87 354-158 82-82 114-187 95-318-13-90-49-162-112-222-107-101-237-143-442-143-98 0-149 5-208 20-218 56-353 200-365 387l-5 74h145 145l7-41c21-132 119-201 286-202 108-1 162 15 211 61 69 65 63 147-15 203-40 30-98 49-334 113-214 58-314 121-369 235-25 50-28 67-28 156s3 106 28 156c54 111 161 193 299 229 90 23 254 26 352 5z" fill="#264de4" transform="matrix(.1 0 0 -.1 0 500)"/></svg>