<svg height="25" viewBox="0 0 28 25" width="28" xmlns="http://www.w3.org/2000/svg"><path d="m0 21.6075067c.04970231.6075997.26287166 1.2169478.82148545 2.0350077.66254018.9702053 1.80251975 1.5033606 2.63406502.6479824.56113713-.5772556 6.62882223-11.18378 9.55301253-15.20293459.3510881-.49612773 1.0764016-.49612773 1.4276906 0 2.9241906 4.01915459 8.9918756 14.62567899 9.5530128 15.20293459.831344.8553782 1.9715247.3222229 2.634065-.6479824.6522791-.9552279.833356-1.6258844.833356-2.3414732 0-.487391-9.4497988-18.07361072-10.4014584-19.53744755-.915212-1.40795991-1.1947897-1.71420229-2.7424935-1.76359365h-1.1807034c-1.5478195.04939136-1.8272525.35563374-2.7426455 1.76359365-.93169444 1.43342961-10.01252947 18.32640165-10.3893866 19.48523885z" fill="#000020" fill-rule="evenodd"/></svg>