<svg fill="none" height="105" viewBox="0 0 261 84" width="326"><path d="m83.37 59c-.313 0-.595-.11-.846-.329a1.252 1.252 0 0 1 -.329-.846v-30.503c0-.345.11-.627.329-.846.22-.25.501-.376.846-.376h21.855c.345 0 .627.125.846.376.251.22.376.501.376.846v4.982c0 .345-.125.627-.376.846-.219.22-.501.329-.846.329h-14.382v6.533h13.442c.345 0 .627.125.846.376.251.22.376.501.376.846v4.982c0 .345-.125.627-.376.846-.219.22-.501.329-.846.329h-13.442v10.434c0 .313-.11.595-.329.846-.22.22-.501.329-.846.329zm41.417.47c-4.449 0-7.959-1.081-10.528-3.243s-3.932-5.342-4.089-9.541c-.031-.877-.047-2.225-.047-4.042s.016-3.18.047-4.089c.125-4.136 1.488-7.316 4.089-9.541 2.632-2.256 6.141-3.384 10.528-3.384 4.355 0 7.833 1.128 10.434 3.384 2.632 2.225 4.011 5.405 4.136 9.541.063 1.817.094 3.18.094 4.089 0 .94-.031 2.287-.094 4.042-.157 4.199-1.52 7.379-4.089 9.541-2.538 2.162-6.032 3.243-10.481 3.243zm0-7.05c1.629 0 2.93-.486 3.901-1.457.971-1.003 1.488-2.522 1.551-4.559.063-1.817.094-3.118.094-3.901s-.031-2.052-.094-3.807c-.063-2.037-.58-3.54-1.551-4.512-.971-1.003-2.272-1.504-3.901-1.504-1.661 0-2.977.501-3.948 1.504-.971.971-1.488 2.475-1.551 4.512-.031.877-.047 2.146-.047 3.807 0 1.692.016 2.992.047 3.901.063 2.037.58 3.556 1.551 4.559.971.971 2.287 1.457 3.948 1.457zm21.143 6.58a1.25 1.25 0 0 1 -.846-.329 1.248 1.248 0 0 1 -.329-.846v-30.503c0-.345.109-.627.329-.846.219-.25.501-.376.846-.376h12.925c4.136 0 7.363.94 9.682 2.82 2.35 1.88 3.525 4.528 3.525 7.943 0 2.193-.517 4.058-1.551 5.593-1.003 1.535-2.397 2.726-4.183 3.572l6.345 11.468c.094.188.141.36.141.517 0 .25-.094.486-.282.705a.957.957 0 0 1 -.705.282h-6.627c-.909 0-1.551-.423-1.927-1.269l-5.17-10.199h-4.512v10.293c0 .345-.126.627-.376.846-.22.22-.502.329-.846.329zm12.878-18.377c1.347 0 2.365-.329 3.055-.987.72-.69 1.081-1.63 1.081-2.82s-.361-2.146-1.081-2.867c-.69-.72-1.708-1.081-3.055-1.081h-5.217v7.755zm19.848 18.377c-.344 0-.642-.11-.893-.329-.219-.22-.329-.501-.329-.846v-30.503c0-.345.11-.627.329-.846.251-.25.549-.376.893-.376h5.311c.784 0 1.348.345 1.692 1.034l8.084 14.476 8.131-14.476c.345-.69.909-1.034 1.692-1.034h5.311c.345 0 .627.125.846.376.251.22.376.501.376.846v30.503c0 .345-.125.627-.376.846-.219.22-.501.329-.846.329h-5.969c-.313 0-.595-.11-.846-.329a1.253 1.253 0 0 1 -.329-.846v-17.108l-5.076 9.306c-.407.72-.955 1.081-1.645 1.081h-2.538c-.626 0-1.175-.36-1.645-1.081l-5.029-9.306v17.108c0 .345-.125.627-.376.846-.219.22-.501.329-.846.329zm39.013 0c-.313 0-.595-.11-.846-.329a1.253 1.253 0 0 1 -.329-.846v-30.55c0-.345.11-.627.329-.846.251-.22.533-.329.846-.329h6.721c.345 0 .627.11.846.329.219.22.329.501.329.846v30.55c0 .313-.11.595-.329.846-.219.22-.501.329-.846.329zm15.468 0a1.25 1.25 0 0 1 -.846-.329 1.248 1.248 0 0 1 -.329-.846v-30.503c0-.345.109-.627.329-.846.219-.25.501-.376.846-.376h6.298c.344 0 .626.125.846.376.219.22.329.501.329.846v10.246l8.319-10.528c.344-.627.955-.94 1.833-.94h7.191c.25 0 .47.11.658.329.219.188.329.407.329.658 0 .25-.063.439-.188.564l-10.951 14.194 11.844 15.604c.125.125.188.313.188.564 0 .25-.11.486-.329.705a.957.957 0 0 1 -.705.282h-7.379c-.502 0-.909-.094-1.222-.282-.314-.22-.533-.439-.658-.658l-8.93-11.468v11.233c0 .313-.11.595-.329.846-.22.22-.502.329-.846.329zm-194.268-59 9.694 5.575-38.176 21.953-9.694-5.574zm10.085 6.745-37.936 21.806-.001 11.032 37.936-21.805v-11.033zm-15.255 21.531-22.601 12.99-.002 11.034 22.601-12.992zm-8.664 17.441-13.99 8.042-.002 11.033 13.99-8.042zm-25.031-22.7 9.75 5.605-.003 11.035-9.751-5.604zm.093 12.64 9.632 5.537-.004 11.035-9.632-5.536zm-.005 12.564 9.636 5.539-.004 11.763-9.636-5.539.004-11.763zm21.472 35.779-9.694-5.575 37.743-21.704 9.694 5.575zm-10.462-6.529 37.879-21.773.001-11.032-37.879 21.773zm15.198-21.497 22.601-12.992.001-11.032-22.6 12.99zm8.664-17.442 13.99-8.042.002-11.033-13.99 8.042zm25.032 22.774-9.75-5.605.003-11.035 9.751 5.605zm-.092-12.711-9.633-5.537.004-11.035 9.633 5.536zm.004-12.565-9.636-5.538.004-11.552 9.636 5.539-.004 11.552z" fill="#fff"/></svg>