<svg height="548" viewBox="0 0 547 548" width="547" xmlns="http://www.w3.org/2000/svg" xmlns:xlink="http://www.w3.org/1999/xlink"><linearGradient id="a"><stop offset="0" stop-color="#00a99d" stop-opacity=".7"/><stop offset=".9532" stop-color="#00a99d" stop-opacity=".9859"/><stop offset="1" stop-color="#00a99d"/></linearGradient><radialGradient id="b" cx="49.999683%" cy="50.000053%" r="50.001215%" xlink:href="#a"/><radialGradient id="c" cx="49.999789%" cy="49.99963%" r="50.001215%" xlink:href="#a"/><g fill="none"><path d="m79.882 278.587c44.16-49.538 120.114-53.898 169.653-9.737 49.537 44.157 53.897 120.111 9.738 169.65-44.16 49.538-258.469 109.372-258.469 109.372s34.92-219.749 79.078-269.285z" fill="#b3e5e2"/><path d="m94.101 278.068c40.386-45.304 109.85-49.292 155.153-8.906 45.304 40.386 49.291 109.85 8.906 155.152-40.385 45.306-230.326 93.236-230.326 93.236s25.881-194.177 66.267-239.482z" fill="#59c7bf"/><circle cx="186.444" cy="339.622" fill="url(#b)" r="94.65"/><path d="m277.731 79.738c-49.538 44.16-53.898 120.114-9.737 169.653 44.157 49.537 120.111 53.897 169.65 9.738 49.538-44.16 109.372-258.47 109.372-258.47s-219.748 34.92-269.285 79.079z" fill="#b3e5e2"/><path d="m277.213 93.956c-45.304 40.386-49.292 109.85-8.906 155.153 40.386 45.304 109.85 49.291 155.152 8.906 45.306-40.385 93.235-230.326 93.235-230.326s-194.176 25.882-239.481 66.267z" fill="#59c7bf"/><circle cx="338.767" cy="186.3" fill="url(#c)" r="94.65"/></g></svg>