<svg height="2500" preserveAspectRatio="xMidYMid" viewBox="0 0 256 288" width="2222" xmlns="http://www.w3.org/2000/svg"><path d="m152.576 32.963 59.146 34.15a25.819 25.819 0 0 1 5.818-4.604c12.266-7.052 27.912-2.865 35.037 9.402 7.052 12.267 2.865 27.912-9.402 35.037a25.698 25.698 0 0 1 -6.831 2.72v68.325a25.7 25.7 0 0 1 6.758 2.702c12.34 7.125 16.527 22.771 9.402 35.038-7.052 12.266-22.771 16.453-35.038 9.402a25.464 25.464 0 0 1 -6.34-5.147l-58.786 33.94a25.671 25.671 0 0 1 1.295 8.08c0 14.103-11.458 25.636-25.635 25.636s-25.635-11.46-25.635-25.636c0-2.52.362-4.954 1.037-7.253l-59.13-34.14a25.824 25.824 0 0 1 -5.738 4.52c-12.34 7.051-27.986 2.864-35.038-9.402-7.051-12.267-2.864-27.913 9.402-35.038a25.71 25.71 0 0 1 6.758-2.703v-68.324a25.698 25.698 0 0 1 -6.831-2.72c-12.267-7.051-16.454-22.77-9.402-35.037s22.77-16.454 35.037-9.402a25.82 25.82 0 0 1 5.79 4.575l59.163-34.159a25.707 25.707 0 0 1 -1.048-7.29c0-14.175 11.458-25.635 25.635-25.635s25.635 11.459 25.635 25.635c0 2.548-.37 5.007-1.059 7.328zm-6.162 10.522 59.287 34.23a25.599 25.599 0 0 0 2.437 19.831c3.609 6.278 9.488 10.44 16.013 12.062v68.41c-.333.081-.664.17-.993.264l-77.433-134.112c.234-.224.464-.452.689-.684zm-36.123.7-77.432 134.11a25.824 25.824 0 0 0 -1.01-.27v-68.417c6.525-1.622 12.404-5.784 16.013-12.062a25.6 25.6 0 0 0 2.427-19.869l59.27-34.22c.239.247.483.49.732.727zm24.872 6.075 77.414 134.08a25.492 25.492 0 0 0 -4.513 5.757 25.7 25.7 0 0 0 -2.702 6.758h-154.722a25.71 25.71 0 0 0 -2.704-6.758 25.825 25.825 0 0 0 -4.506-5.724l77.429-134.107a25.715 25.715 0 0 0 7.141 1.004c2.487 0 4.89-.352 7.163-1.01zm11.795 194.478 58.902-34.008a25.865 25.865 0 0 1 -.473-1.682h-154.78c-.082.333-.171.663-.266.992l59.19 34.175a25.558 25.558 0 0 1 18.469-7.842 25.564 25.564 0 0 1 18.958 8.365z" fill="#e535ab" fill-rule="evenodd"/></svg>