<?xml version="1.0"?>
<svg width="234" height="234" xmlns="http://www.w3.org/2000/svg" xmlns:svg="http://www.w3.org/2000/svg" preserveAspectRatio="xMidYMid meet">
 <metadata>Created by potrace 1.11, written by Peter Selinger 2001-2013</metadata>
 <g>
  <title>Layer 1</title>
  <g id="svg_1" fill="#000000" transform="translate(0,234) scale(0.10000000149011612,-0.10000000149011612) ">
   <path fill="#e16426" id="svg_2" d="m1304,2320c-12,-5 -29,-27 -38,-50c-9,-22 -37,-86 -63,-140c-54,-116 -44,-121 -122,55c-30,66 -55,121 -56,123c-1,2 -14,5 -28,8c-30,5 -97,-47 -97,-75c0,-9 20,-63 44,-121l43,-106l-15,-47l-15,-48l42,-43l42,-43l-62,-17c-63,-17 -144,-54 -191,-88l-28,-19l0,64l0,63l-44,22c-41,21 -46,28 -91,136c-30,72 -55,116 -65,119c-28,7 -91,-1 -106,-14c-21,-18 -18,-34 37,-182c29,-76 50,-140 47,-142c-2,-2 -64,18 -138,45c-73,28 -141,50 -150,50c-33,0 -56,-51 -46,-104c6,-29 14,-35 119,-79c108,-46 115,-50 135,-93l22,-44l60,0l60,0l-34,-65c-30,-55 -43,-91 -73,-194c-2,-10 -17,-2 -46,27l-43,42l-47,-16l-46,-16l-115,47l-114,47l-31,-23c-31,-23 -50,-62 -44,-90c3,-10 58,-41 144,-80c76,-34 139,-65 139,-68c0,-3 -56,-30 -123,-60c-67,-30 -132,-60 -144,-68c-39,-23 -24,-86 27,-117c28,-16 31,-16 141,29l112,45l51,-15l51,-15l42,46l42,47l10,-44c16,-62 50,-146 82,-200l27,-46l-58,4l-58,4l-28,-51c-15,-27 -31,-50 -37,-50c-5,0 -23,-7 -40,-15c-18,-8 -63,-28 -102,-44c-64,-27 -70,-32 -75,-63c-3,-18 -2,-45 3,-61c17,-51 33,-51 188,7c79,30 145,53 146,52c2,-1 -22,-69 -53,-150c-47,-126 -53,-150 -42,-164c20,-27 31,-32 63,-32c58,0 69,9 93,70c57,147 67,164 114,188l45,22l-3,65l-3,64l37,-22c67,-42 146,-74 226,-92l29,-6l-47,-48l-46,-47l15,-46l16,-46l-44,-110c-42,-104 -44,-112 -29,-134c23,-36 43,-48 78,-48c31,0 32,3 94,141c39,87 66,135 71,127c4,-7 33,-70 64,-140l57,-128l38,0c31,0 44,6 65,31c14,18 24,37 22,43c-3,6 -23,57 -46,112l-41,101l16,47l16,46l-54,50c-45,42 -50,50 -31,50c41,0 178,49 237,85c32,19 59,35 60,35c0,0 1,-30 1,-67l0,-68l42,-20c39,-19 44,-27 88,-132c33,-76 53,-113 66,-116c55,-15 128,26 113,62c-14,36 -102,271 -101,271c1,0 67,-25 147,-55c134,-51 146,-53 167,-40c21,14 26,26 26,70c0,50 -3,52 -105,95c-120,49 -123,52 -149,102l-20,38l-68,-2c-44,-2 -67,1 -63,7c3,6 20,33 37,60c31,49 62,119 72,160c2,11 6,27 8,35c2,8 4,22 4,30c1,8 20,-5 49,-33l48,-47l46,15l45,16l116,-46c113,-45 116,-46 142,-29c27,18 53,60 49,82c-1,6 -2,16 -3,21c0,4 -29,21 -63,36c-35,16 -101,46 -148,67l-84,39l109,50c154,70 180,85 183,109c4,26 -19,64 -53,86c-22,15 -28,15 -57,2c-18,-8 -70,-30 -115,-48c-82,-32 -83,-32 -129,-16l-47,16l-39,-41c-22,-23 -40,-40 -42,-38c-2,2 -9,27 -16,54c-15,58 -44,124 -77,177c-13,21 -23,40 -23,44c0,3 17,5 38,4c83,-4 87,-2 109,44c20,41 27,46 125,86c56,24 109,49 117,55c20,19 18,90 -4,115c-10,11 -24,20 -31,20c-13,0 -247,-86 -276,-101c-27,-15 -23,3 32,146c27,72 50,135 50,142c0,7 -9,21 -20,31c-19,18 -41,20 -107,13c-6,0 -32,-52 -58,-114c-45,-107 -50,-115 -91,-137c-46,-24 -47,-27 -45,-97c1,-46 -7,-48 -59,-13c-34,23 -146,67 -193,75l-39,8l43,43l42,43l-12,53c-14,56 -11,66 63,240c15,34 14,37 -5,62c-28,36 -69,55 -95,46zm-219,-751c0,-41 -4,-69 -10,-69c-5,0 -33,-11 -61,-24l-52,-24l-46,47c-25,26 -46,50 -46,53c0,21 195,105 210,91c2,-2 5,-35 5,-74zm236,56c47,-17 129,-62 129,-72c0,-3 -22,-28 -50,-56c-36,-36 -53,-47 -62,-40c-7,6 -34,18 -60,28l-48,18l0,73c0,82 -2,81 91,49zm-480,-320c-12,-26 -21,-54 -21,-61c0,-11 -17,-14 -71,-14l-70,0l4,29c9,58 32,114 67,168l15,23l48,-49l49,-48l-21,-48zm758,77c25,-52 36,-82 46,-135c4,-16 -3,-18 -71,-15l-75,3l-23,55l-23,55l50,52c28,29 54,50 59,47c5,-3 21,-31 37,-62zm-397,-72c59,-17 111,-84 112,-145c1,-80 -59,-150 -135,-160c-157,-20 -242,165 -126,273c40,38 89,48 149,32zm-373,-267c12,-27 24,-54 29,-62c6,-10 -3,-27 -27,-54c-59,-64 -64,-64 -99,1c-33,63 -56,137 -47,152c3,6 33,10 65,10l59,0l20,-47zm815,20c-19,-78 -73,-193 -92,-193c-4,0 -29,22 -55,48l-48,48l19,45c11,24 22,51 25,60c4,13 21,17 81,18l77,2l-7,-28zm-211,-311c-39,-30 -150,-72 -187,-72c-20,0 -21,5 -21,66l0,66l60,28l60,27l53,-51c48,-47 51,-52 35,-64zm-410,87c23,-12 43,-21 45,-20c16,9 21,-10 20,-69l-2,-71l-30,5c-43,7 -93,27 -144,55l-42,25l47,48c26,26 51,48 56,48c4,0 27,-10 50,-21z"/>
  </g>
 </g>
</svg>