<svg height="232" viewBox="0 0 233 232" width="233" xmlns="http://www.w3.org/2000/svg"><path d="m130.400002 231c-1.2-.5-2.9-2.699997-3.8-5-.9-2.199997-3.7-8.599997-6.3-14-5.4-11.599997-4.4-12.099997-12.2 5.5-3 6.600003-5.5 12.100003-5.6 12.300003-.1.199997-1.4.5-2.8000005.8-3.0000001.5-9.7000002-4.7-9.7000002-7.5 0-.9 2.0000001-6.3 4.4000001-12.100003l4.3000001-10.599997-1.5000001-4.7-1.5-4.8 4.2000001-4.3 4.2000005-4.3-6.2000005-1.7c-6.3000001-1.7-14.4000003-5.4-19.1000003-8.8l-2.8000001-1.9v6.4 6.3l-4.4 2.2c-4.1000001 2.1-4.6000001 2.8-9.1000002 13.6-3 7.2-5.5000001 11.599997-6.5000001 11.9-2.8.699997-9.1000001-.1-10.6000001-1.4-2.1000001-1.8-1.8000001-3.400003 3.7-18.2 2.9000001-7.6 5.0000001-14 4.7000001-14.200003-.2-.199997-6.4000001 1.800003-13.8000002 4.5-7.3000001 2.800003-14.1000002 5-15.0000002 5-3.3000001 0-5.6000001-5.099997-4.6000001-10.399997.6-2.9 1.4-3.5 11.9000002-7.900001 10.8000001-4.6 11.5000002-5 13.5000002-9.3l2.2-4.400002h6.0000001 6.0000001l-3.4000001-6.5c-3-5.5-4.3-9.099998-7.3000001-19.399998-.2-1-1.7-.2-4.6 2.7l-4.3000001 4.199998-4.7000001-1.599998-4.6-1.6-11.5000002 4.699998-11.40000018 4.700002-3.10000004-2.3c-3.10000005-2.3-5.00000008-6.2-4.40000007-9 .3-1 5.80000009-4.1 14.40000019-8 7.6000001-3.400002 13.9000002-6.5 13.9000002-6.8s-5.6000001-3-12.3000002-6-13.20000015-6-14.40000017-6.8c-3.90000005-2.300002-2.40000003-8.6000006 2.70000004-11.7000006 2.80000005-1.6000014 3.10000005-1.6000014 14.10000023 2.8999986l11.2000002 4.5 5.1-1.5 5.1000001-1.5 4.2000001 4.6000015 4.2 4.7000005 1-4.4000005c1.6000001-6.2000001 5.0000001-14.6000002 8.2000002-20.0000003l2.7-4.6000001-5.8000001.4-5.8000001.4-2.8-5.1000011c-1.5-2.699999-3.1000001-5-3.7000001-5-.5 0-2.3-.699999-4-1.5-1.8000001-.7999991-6.3000001-2.7999991-10.2000002-4.3999991-6.4000001-2.7-7.0000001-3.2000001-7.5000001-6.3000001-.3-1.8000008-.2-4.5000001.3-6.1000001 1.7-5.1000001 3.3000001-5.1000001 18.8000003.7 7.9000001 3.0000001 14.5000002 5.3000001 14.6000002 5.2000001.2-.1000008-2.2-6.9000001-5.3000001-15.0000002-4.7-12.6000006-5.3-15.0000002-4.2-16.4000003 2-2.7000003 3.1-3.2000003 6.3000001-3.2000003 5.8000001 0 6.9000001.9000003 9.3000001 7 5.7000001 14.7000006 6.7000001 16.4000006 11.4000002 18.8000007l4.5 2.1999993-.3 6.5-.3 6.4000009 3.7000001-2.2c6.7000001-4.2000009 14.6000002-7.4000002 22.6000008-9.2000009l2.9-.5999993-4.700001-4.8000001-4.5999996-4.7 1.5000001-4.6000001 1.6-4.6000001-4.4000001-11.0000001c-4.2000001-10.40000018-4.4000001-11.2000003-2.9-13.40000023 2.3-3.60000005 4.3-4.80000007 7.8000001-4.80000007 3.1000005 0 3.2000005.3 9.4000005 14.1000002 3.9 8.7000001 6.6 13.5000002 7.1 12.7000002.4-.7 3.3-7.0000001 6.4-14.0000002l5.7-12.8000002h3.8c3.1 0 4.4.60000001 6.5 3.10000005 1.4 1.80000002 2.4 3.70000005 2.2 4.30000006-.3.59999989-2.3 5.70000009-4.6 11.20000019l-4.1 10.1000001 1.6 4.7000001 1.6 4.5999995-5.4 5c-4.5 4.2000007-5 5-3.1 5 4.1 0 17.8 4.9000008 23.7 8.5 3.2 1.9000009 5.9 3.5 6 3.5 0 0 .1-3 .1-6.6999992v-6.8000008l4.2-2c3.9-1.8999994 4.4-2.6999994 8.800001-13.1999995 3.3-7.6000001 5.3-11.3000005 6.6-11.6000002 5.5-1.5 12.8 2.6 11.3 6.2000001-1.4 3.5999996-10.2 27.0999996-10.1 27.0999996s6.7-2.5 14.7-5.5c13.4-5.0999994 14.6-5.2999994 16.7-4 2.1 1.4000007 2.6 2.6000007 2.6 7 0 5-.3 5.2000008-10.5 9.5-12 4.900001-12.3 5.200001-14.9 10.200001l-2 3.799999-6.8-.1999989c-4.4-.2-6.7.1-6.3.6999989.3.6000011 2 3.3000012 3.7 6 3.1 4.9000013 6.2 11.9000014 7.2 16 .2 1.1000015.6 2.7000015.8 3.5.2.800002.4 2.200002.4 3 .1.800002 2-.5 4.9-3.2999985l4.8-4.7000015 4.6 1.5 4.5 1.6000015 11.6-4.6000015c11.3-4.5 11.6-4.5999987 14.2-2.8999986 2.7 1.8 5.3 6 4.9 8.2000001-.1.6-.2 1.5999995-.3 2.1000005 0 .4-2.9 2.099998-6.3 3.599998-3.5 1.600002-10.1 4.600002-14.8 6.700002l-8.4 3.9 10.9 5c15.4 7 18 8.5 18.3 10.899998.4 2.600002-1.9 6.400002-5.3 8.600002-2.2 1.5-2.8 1.5-5.7.2-1.8-.800002-7-3-11.5-4.800002-8.2-3.199998-8.3-3.199998-12.9-1.599998l-4.7 1.599998-3.9-4.099998c-2.2-2.3-4-4-4.2-3.8s-.9 2.7-1.6 5.399998c-1.5 5.800002-4.4 12.400002-7.7 17.700002-1.3 2.1-2.3 4-2.3 4.4 0 .3 1.7.5 3.8.399998 8.3-.399998 8.7-.199998 10.9 4.400002 2 4.099998 2.7 4.599998 12.5 8.599998 5.6 2.400003 10.9 4.900003 11.7 5.5 2 1.900003 1.8 9-.4 11.5-1 1.100003-2.4 2-3.1 2-1.3 0-24.7-8.599997-27.6-10.099997-2.7-1.5-2.3.3 3.2 14.599997 2.7 7.200003 5 13.5 5 14.200003 0 .7-.9 2.1-2 3.1-1.9 1.8-4.1 2-10.7 1.3-.6 0-3.2-5.2-5.8-11.4-4.500001-10.700003-5.000001-11.5-9.100001-13.700003-4.6-2.399997-4.7-2.699997-4.5-9.699997.1-4.6-.7-4.800003-5.9-1.300003-3.4 2.300003-14.6 6.700003-19.3 7.5l-3.9.800003 4.3 4.3 4.2 4.3-1.2 5.3c-1.4 5.6-1.1 6.6 6.3 24 1.5 3.4 1.4 3.7-.5 6.2-2.8 3.599997-6.9 5.5-9.5 4.599997zm-21.900001-75.099998c0-4.1-.399999-6.9-1-6.9-.5 0-3.299999-1.1-6.099999-2.4l-5.2000006-2.4-4.6 4.7c-2.5000001 2.6-4.6000001 5-4.6000001 5.3 0 2.1 19.4999997 10.5 20.9999997 9.1.200001-.2.5-3.5.5-7.4zm23.600001 5.6c4.7-1.7 12.9-6.2 12.9-7.2 0-.3-2.2-2.8-5-5.6-3.6-3.6-5.3-4.7-6.2-4-.7.6-3.4 1.8-6 2.8l-4.8 1.8v7.3c0 8.2-.2 8.1 9.1 4.9zm-48.0000007-32c-1.2000003-2.6-2.1000001-5.4-2.1000001-6.1 0-1.1-1.7-1.4-7.1000002-1.4h-7l.4 2.9c.9 5.8 3.2000001 11.4 6.7000001 16.8l1.5 2.3 4.8000001-4.9 4.9000001-4.8zm75.8000007 7.7c2.5-5.2 3.6-8.2 4.6-13.5.4-1.6-.3-1.8-7.1-1.5l-7.5.3-2.3 5.5-2.3 5.5 5 5.2c2.8 2.9 5.4 5 5.9 4.7s2.1-3.1 3.7-6.2zm-39.7-7.2c5.9-1.7 11.1-8.4 11.2-14.5.1-8-5.9-15.000001-13.5-16.0000005-15.7-2-24.2000006 16.5000005-12.6 27.3000005 4 3.8 8.9 4.8 14.9 3.2zm-37.3000008-26.7c1.2000001-2.700001 2.4000001-5.4000005 2.9000001-6.2000006.6-1-.3-2.7-2.7000001-5.4-5.9-6.4000001-6.4000001-6.4000001-9.9000001.1-3.3000001 6.3000001-5.6000001 13.7000006-4.7000001 15.2000006.3.6 3.3000001 1 6.5000001 1h5.9000001zm81.5000008 2c-1.9-7.8000007-7.3-19.3000007-9.2-19.3000007-.4 0-2.9 2.2-5.5 4.8000001l-4.8 4.8 1.9 4.4999996c1.1 2.4 2.2 5.100001 2.5 6.000001.4 1.3 2.1 1.7 8.1 1.8l7.7.2zm-21.1-31.1000009c-3.9-3-15-7.2000001-18.7-7.2000001-2 0-2.1.5-2.1 6.6000001v6.6000001l6 2.7999998 6 2.7000003 5.3-5.1000001c4.8-4.7000001 5.1-5.2000001 3.5-6.4000001zm-41 8.6999999c2.3-1.1999998 4.3-2.0999998 4.5-2 1.6.9000002 2.1-1 2-6.8999999l-.2-7.1000001-3 .5c-4.3.7-9.3000006 2.7-14.4000006 5.5l-4.2000001 2.5 4.7000001 4.8000002c2.6 2.6 5.1 4.8000001 5.6 4.8000001.4000001 0 2.6999996-1 5.0000006-2.1000003z" fill="#e16426" transform="matrix(1 0 0 -1 0 231.999999)"/></svg>