<svg height="2500" viewBox="0 0 122.8 222" width="1383" xmlns="http://www.w3.org/2000/svg" xmlns:xlink="http://www.w3.org/1999/xlink"><radialGradient id="a" cx="18038.016" cy="-146.44" gradientTransform="matrix(.07072 -.02449 -.897 -2.5906 -1526.665 25.194)" gradientUnits="userSpaceOnUse" r="368.717"><stop offset="0"/><stop offset="1" stop-opacity="0"/></radialGradient><g transform="matrix(.29074 0 0 .29074 94.126 120.527)"><g fill="#b1060f" stroke="#000"><path d="m-52.5-412.3-.3 168-.3 168-13.8-39v-.1l-17.9 374c17.6 49.6 27 76.1 27.1 76.2s10.1.7 22.2 1.3c36.6 1.8 82 5.7 116.5 10 8 1 14.8 1.5 15.3 1.1s.6-171.4.5-380.1l-.3-379.4z"/><path d="m-322-412.8v379.8c0 208.9.2 380 .5 380.3s13.2-1 28.8-2.7 37.1-3.9 47.8-4.8c16.4-1.4 65.6-4.5 71.2-4.6 1.7 0 1.8-8.5 2-160.9l.3-160.9 11.9 33.6c1.8 5.2 2.4 6.8 4.2 11.9l17.9-373.9c-3.8-10.7-1.8-5.1-6.1-17.3-14.6-41.3-27-76.2-27.5-77.8l-1-2.8h-150z"/><path d="m-52.5-412.3-.3 168-.3 168-13.8-39v-.1l-17.9 374c17.6 49.6 27 76.1 27.1 76.2s10.1.7 22.2 1.3c36.6 1.8 82 5.7 116.5 10 8 1 14.8 1.5 15.3 1.1s.6-171.4.5-380.1l-.3-379.4z"/><path d="m-322-412.8v379.8c0 208.9.2 380 .5 380.3s13.2-1 28.8-2.7 37.1-3.9 47.8-4.8c16.4-1.4 65.6-4.5 71.2-4.6 1.7 0 1.8-8.5 2-160.9l.3-160.9 11.9 33.6c1.8 5.2 2.4 6.8 4.2 11.9l17.9-373.9c-3.8-10.7-1.8-5.1-6.1-17.3-14.6-41.3-27-76.2-27.5-77.8l-1-2.8h-150z"/></g><path d="m-322-412.8v213.2l150.2 398.4c0-9.1 0-14.1.1-24.5l.3-160.9 11.9 33.6c66 187.2 101.5 287.6 101.7 287.8.1.1 10.1.7 22.2 1.3 36.6 1.8 82 5.7 116.5 10 8 1 14.8 1.5 15.3 1.1.3-.3.5-84.1.5-202.4l-149.4-429.8-.1 40.7-.3 168-13.8-39c-13.5-38.1-22.5-63.6-76.8-217-14.6-41.3-27-76.2-27.5-77.8l-1-2.8h-149.8z" fill="url(#a)"/><path d="m-322-412.8 150.5 426.5v-.2l11.9 33.6c66.1 187.1 101.6 287.5 101.8 287.7.1.1 10.1.7 22.2 1.3 36.6 1.8 82 5.7 116.5 10 7.9 1 14.8 1.5 15.2 1.1l-149.2-423.6v.1l-13.8-39c-13.5-38.1-22.5-63.6-76.8-217-14.6-41.3-27-76.2-27.5-77.8l-1-2.8h-74.9z" fill="#e50914"/></g></svg>