<svg height="50" viewBox="0 0 92 50" width="92" xmlns="http://www.w3.org/2000/svg"><g fill="none"><path d="m27.9024961 33.0929766c4.5814336 0 8.2954043-3.7139707 8.2954043-8.2957618 0-4.5810761-3.7139707-8.2950468-8.2957617-8.2950468-4.5810762 0-8.2950469 3.7136132-8.2950469 8.2954043 0 4.5814336 3.7139707 8.2954043 8.2954043 8.2954043zm-19.6070918 16.5904511c4.5814336 0 8.2954043-3.7136132 8.2954043-8.2954043 0-4.5810761-3.7139707-8.2950468-8.29576172-8.2950468-4.58071875 0-8.29504688 3.7136132-8.29504688 8.2950468s3.71361328 8.2957618 8.2954043 8.2957618zm74.9091914 0c4.5814336 0 8.2954043-3.7136132 8.2954043-8.2954043 0-4.5810761-3.7136133-8.2950468-8.2954043-8.2950468-4.5814336 0-8.2954043 3.7136132-8.2954043 8.2950468s3.7139707 8.2957618 8.2957617 8.2957618z" fill="#fff"/><path d="m55.9597559 25.1471309c-.2652071-2.7714493-.4003125-5.07825-2.5233985-6.6995157-2.6885273-2.0530312-5.7344765-.7209199-9.4859765-2.0751914-3.6868067-.8917675-6.421084-4.1646797-6.421084-8.06593942 0-4.58750977 3.7808086-8.30648438 8.4444492-8.30648438 3.4544824 0 6.4243008 2.03980664 7.7324648 4.96208789 2.00192 3.80296875.7005469 7.67277541 3.2160821 9.62215431 2.9783965 2.3082305 6.9940312.6179824 11.4746718 2.8050469 1.4301239.6562905 2.6483084 1.6992991 3.5170313 3.0112793.886944 1.3398014 1.3591298 2.9113921 1.3574925 4.5181699 0 3.9012597-2.7342816 7.1745293-6.4207308 8.0662969-3.7518574 1.3542714-6.7978066.0221601-9.486334 2.0751914-3.023789 2.3089453-1.4050254 6.1716035-3.8694492 10.2515742-1.3985918 2.6870976-4.2415254 4.5260332-7.5212285 4.5260332-4.6636406 0-8.4444492-3.7189746-8.4444492-8.3064844 0-3.3322441 1.9951289-6.2062734 4.8745195-7.5294492 4.4806406-2.1874219 8.495918-.4968164 11.4746719-2.8050469 1.7181269-1.3317539 2.0812676-3.3858574 2.0812676-6.0497226z" fill="#ca4245"/></g></svg>