<?xml version="1.0" encoding="UTF-8"?>
<svg width="578px" height="216px" viewBox="0 0 578 216" version="1.1" xmlns="http://www.w3.org/2000/svg" xmlns:xlink="http://www.w3.org/1999/xlink">
    <!-- Generator: Sketch 56.2 (81672) - https://sketch.com -->
    <title>reason</title>
    <desc>Created with Sketch.</desc>
    <g id="Page-1" stroke="none" stroke-width="1" fill="none" fill-rule="evenodd">
        <g id="reason">
            <g id="Rectangle-1">
                <g id="path-1-link" fill="#000000" fill-rule="nonzero">
                    <rect id="path-1" x="0" y="0" width="216" height="216"></rect>
                </g>
                <g id="path-1-link" fill="#DD4B39">
                    <rect id="path-1" x="0" y="0" width="216" height="216"></rect>
                </g>
                <rect id="Rectangle" stroke="#D74837" x="0.5" y="0.5" width="215" height="215"></rect>
            </g>
            <path d="M288.086,197 L282.422,182.368 L246.668,182.368 L240.886,197 L218.702,197 L254.22,114.282 L276.404,114.282 L311.096,197 L288.086,197 Z M253.158,165.848 L276.05,165.848 L264.722,136.348 L253.158,165.848 Z M379.17,139.77 C370.438,134.814 359.346,130.92 352.502,130.92 C347.31,130.92 343.888,132.808 343.888,136.584 C343.888,150.272 387.43,142.484 387.43,172.22 C387.43,189.094 372.562,197.708 354.154,197.708 C340.348,197.708 325.952,192.634 316.04,184.492 L324.418,167.618 C332.914,174.934 345.776,180.126 354.39,180.126 C360.762,180.126 364.774,177.766 364.774,173.4 C364.774,159.358 321.232,167.854 321.232,138.59 C321.232,123.132 334.33,113.338 354.272,113.338 C366.426,113.338 378.698,117.114 387.312,122.66 L379.17,139.77 Z M441.816,113.692 C467.422,113.692 486.538,131.628 486.538,155.582 C486.538,179.772 467.422,197.944 441.816,197.944 C416.21,197.944 397.094,179.772 397.094,155.582 C397.094,131.51 416.21,113.692 441.816,113.692 Z M442.052,132.1 C429.662,132.1 419.278,142.248 419.278,155.7 C419.278,169.152 429.78,179.536 442.052,179.536 C454.442,179.536 464.354,169.152 464.354,155.7 C464.354,142.248 454.442,132.1 442.052,132.1 Z M501.276,114.282 L520.274,114.282 L557.798,164.078 L557.798,114.282 L577.858,114.282 L577.858,197 L558.978,197 L521.454,147.44 L521.454,197 L501.276,197 L501.276,114.282 Z" id="[]ASON" fill="#333333" fill-rule="nonzero"></path>
            <g id="[RE]ASON" transform="translate(54.000000, 114.000000)">
                <g id="path-3-link" fill="#FFFFFF">
                    <path d="M74.128,83 L49.702,83 L37.666,60.108 L21.618,60.108 L21.618,83 L0.024,83 L0.024,0.282 L37.194,0.282 C59.142,0.282 71.65,10.902 71.65,29.31 C71.65,41.818 66.458,51.022 56.9,55.978 L74.128,83 Z M21.618,17.51 L21.618,42.88 L37.312,42.88 C46.044,42.88 51.118,38.396 51.118,30.018 C51.118,21.876 46.044,17.51 37.312,17.51 L21.618,17.51 Z M85.456,0.282 L150.71,0.282 L150.71,17.51 L107.05,17.51 L107.05,32.968 L146.462,32.968 L146.462,50.078 L107.05,50.196 L107.05,65.772 L151.89,65.772 L151.89,83 L85.456,83 L85.456,0.282 Z" id="path-3"></path>
                </g>
                <g id="path-3-link" fill="#000000" fill-rule="nonzero">
                    <path d="M74.128,83 L49.702,83 L37.666,60.108 L21.618,60.108 L21.618,83 L0.024,83 L0.024,0.282 L37.194,0.282 C59.142,0.282 71.65,10.902 71.65,29.31 C71.65,41.818 66.458,51.022 56.9,55.978 L74.128,83 Z M21.618,17.51 L21.618,42.88 L37.312,42.88 C46.044,42.88 51.118,38.396 51.118,30.018 C51.118,21.876 46.044,17.51 37.312,17.51 L21.618,17.51 Z M85.456,0.282 L150.71,0.282 L150.71,17.51 L107.05,17.51 L107.05,32.968 L146.462,32.968 L146.462,50.078 L107.05,50.196 L107.05,65.772 L151.89,65.772 L151.89,83 L85.456,83 L85.456,0.282 Z" id="path-3"></path>
                </g>
            </g>
        </g>
    </g>
</svg>