<?xml version="1.0" encoding="UTF-8"?>
<svg width="2211px" height="2500px" viewBox="0 0 2211 2500" version="1.1" xmlns="http://www.w3.org/2000/svg" xmlns:xlink="http://www.w3.org/1999/xlink">
    <!-- Generator: Sketch 56.2 (81672) - https://sketch.com -->
    <title>webpack</title>
    <desc>Created with Sketch.</desc>
    <g id="Page-1" stroke="none" stroke-width="1" fill="none" fill-rule="evenodd">
        <g id="webpack" fill-rule="nonzero">
            <polygon id="Path" fill="#FFFFFF" points="1105.25 0 2210.04167 625 2210.04167 1875 1105.25 2500 0.458333333 1875 0.458333333 625"></polygon>
            <path d="M2012.75,1831.875 L1141.70833,2324.58333 L1141.70833,1940.83333 L1684.41667,1642.29167 L2012.75,1831.875 Z M2072.33333,1777.91667 L2072.33333,747.5 L1753.58333,931.458333 L1753.58333,1593.75 L2072.33333,1777.91667 Z M194.208333,1831.875 L1065.25,2324.58333 L1065.25,1940.83333 L522.541667,1642.29167 L194.208333,1831.875 L194.208333,1831.875 Z M134.625,1777.91667 L134.625,747.5 L453.375,931.458333 L453.375,1593.75 L134.625,1777.91667 Z M171.916667,680.833333 L1065.25,175.416667 L1065.25,546.458333 L492.958333,861.25 L488.583333,863.75 L171.916667,680.833333 L171.916667,680.833333 Z M2035.04167,680.833333 L1141.70833,175.416667 L1141.70833,546.458333 L1714,861.25 L1718.375,863.75 L2035.04167,680.833333 L2035.04167,680.833333 Z" id="Shape" fill="#8ED6FB"></path>
            <path d="M1065.25,1853.54167 L529.833333,1559.16667 L529.833333,975.833333 L1065.25,1285 L1065.25,1853.54167 M1141.70833,1853.54167 L1677.125,1559.16667 L1677.125,975.833333 L1141.70833,1285 L1141.70833,1853.54167 M566.083333,908.333333 L1103.58333,612.708333 L1641.08333,908.333333 L1103.58333,1218.75 L566.083333,908.333333" id="Shape" fill="#1C78C0"></path>
        </g>
    </g>
</svg>