<svg height="2500" viewBox="0 0 2211 2500" width="2211" xmlns="http://www.w3.org/2000/svg"><g fill="none"><path d="m1105.25 0 1104.79167 625v1250l-1104.79167 625-1104.79166667-625v-1250z" fill="#fff"/><path d="m2012.75 1831.875-871.04167 492.70833v-383.75l542.70834-298.54166zm59.58333-53.95833v-1030.41667l-318.75 183.958333v662.291667zm-1878.124997 53.95833 871.041667 492.70833v-383.75l-542.708333-298.54166zm-59.583333-53.95833v-1030.41667l318.75 183.958333v662.291667zm37.291667-1097.083337 893.333333-505.416666v371.041666l-572.291667 314.791667-4.375 2.5zm1863.125003 0-893.33334-505.416666v371.041666l572.29167 314.791667 4.375 2.5z" fill="#8ed6fb"/><path d="m1065.25 1853.54167-535.416667-294.375v-583.333337l535.416667 309.166667zm76.45833 0 535.41667-294.375v-583.333337l-535.41667 309.166667zm-575.624997-945.208337 537.499997-295.625 537.5 295.625-537.5 310.416667z" fill="#1c78c0"/></g></svg>