<?xml version="1.0" encoding="UTF-8"?>
<svg width="518px" height="518px" viewBox="0 0 518 518" version="1.1" xmlns="http://www.w3.org/2000/svg" xmlns:xlink="http://www.w3.org/1999/xlink">
    <!-- Generator: Sketch 56.2 (81672) - https://sketch.com -->
    <title>yarn</title>
    <desc>Created with Sketch.</desc>
    <g id="Page-1" stroke="none" stroke-width="1" fill="none" fill-rule="evenodd">
        <g id="yarn" fill-rule="nonzero">
            <path d="M259,0 C402,0 518,116 518,259 C518,402 402,518 259,518 C116,518 0,402 0,259 C0,116 116,0 259,0 Z" id="Path" fill="#2C8EBB"></path>
            <path d="M435.2,337.5 C433.4,323.3 421.4,313.5 406,313.7 C383,314 363.7,325.9 350.9,333.8 C345.9,336.9 341.6,339.2 337.9,340.9 C338.7,329.3 338,314.1 332,297.4 C324.7,277.4 314.9,265.1 307.9,258 C316,246.2 327.1,229 332.3,202.4 C336.8,179.7 335.4,144.4 325.1,124.6 C323,120.6 319.5,117.7 315.1,116.5 C313.3,116 309.9,115 303.2,116.9 C293.1,96 289.6,93.8 286.9,92 C281.3,88.4 274.7,87.6 268.5,89.9 C260.2,92.9 253.1,100.9 246.4,115.1 C245.4,117.2 244.5,119.2 243.7,121.2 C231,122.1 211,126.7 194.1,145 C192,147.3 187.9,149 183.6,150.6 L183.7,150.6 C174.9,153.7 170.9,160.9 166,173.9 C159.2,192.1 166.2,210 173.1,221.6 C163.7,230 151.2,243.4 144.6,259.1 C136.4,278.5 135.5,297.5 135.8,307.8 C128.8,315.2 118,329.1 116.8,344.7 C115.2,366.5 123.1,381.3 126.6,386.7 C127.6,388.3 128.7,389.6 129.9,390.9 C129.5,393.6 129.4,396.5 130,399.5 C131.3,406.5 135.7,412.2 142.4,415.8 C155.6,422.8 174,425.8 188.2,418.7 C193.3,424.1 202.6,429.3 219.5,429.3 L220.5,429.3 C224.8,429.3 279.4,426.4 295.3,422.5 C302.4,420.8 307.3,417.8 310.5,415.1 C320.7,411.9 348.9,402.3 375.5,385.1 C394.3,372.9 400.8,370.3 414.8,366.9 C428.4,363.6 436.9,351.2 435.2,337.5 L435.2,337.5 Z M411.4,352.2 C395.4,356 387.3,359.5 367.5,372.4 C336.6,392.4 302.8,401.7 302.8,401.7 C302.8,401.7 300,405.9 291.9,407.8 C277.9,411.2 225.2,414.1 220.4,414.202148 C207.5,414.3 199.6,410.9 197.4,405.6 C190.7,389.6 207,382.6 207,382.6 C207,382.6 203.4,380.4 201.3,378.4 C199.4,376.5 197.4,372.7 196.8,374.1 C194.3,380.2 193,395.1 186.3,401.8 C177.1,411.1 159.7,408 149.4,402.6 C138.1,396.6 150.2,382.5 150.2,382.5 C150.2,382.5 144.1,386.1 139.2,378.7 C134.8,371.9 130.7,360.3 131.8,346 C133,329.7 151.2,313.9 151.2,313.9 C151.2,313.9 148,289.8 158.5,265.1 C168,242.6 193.6,224.5 193.6,224.5 C193.6,224.5 172.1,200.7 180.1,179.3 C185.3,165.3 187.4,165.4 189.1,164.8 C195.1,162.5 200.9,160 205.2,155.3 C226.7,132.1 254.1,136.5 254.1,136.5 C254.1,136.5 267.1,97 279.1,104.7 C282.8,107.1 296.1,136.7 296.1,136.7 C296.1,136.7 310.3,128.4 311.9,131.5 C320.5,148.2 321.5,180.1 317.7,199.5 C311.3,231.5 295.3,248.7 288.9,259.5 C287.4,262 306.1,269.9 317.9,302.6 C328.8,332.5 319.1,357.6 320.8,360.4 C321.1,360.9 321.2,361.1 321.2,361.1 C321.2,361.1 333.7,362.1 358.8,346.6 C372.2,338.3 388.1,329 406.2,328.8 C423.7,328.5 424.6,349 411.4,352.2 L411.4,352.2 Z" id="Shape" fill="#FFFFFF"></path>
        </g>
    </g>
</svg>