
<svg width="500px" height="250px" viewBox="0 0 500 250" version="1.1" xmlns="http://www.w3.org/2000/svg" xmlns:xlink="http://www.w3.org/1999/xlink">
    <defs>
        <rect id="path-1" x="0" y="0" width="500" height="250"></rect>
    </defs>
    <g id="Page-1" stroke="none" stroke-width="1" fill="none" fill-rule="evenodd">
        <g id="Formik-React">
            <g id="react">
                <mask id="mask-2" fill="white">
                    <use xlink:href="#path-1"></use>
                </mask>
                <use id="Mask" fill="#151515" xlink:href="#path-1"></use>
                <g opacity="0.5" mask="url(#mask-2)">
                    <g transform="translate(201.000000, 19.000000)">
                        <circle id="Oval" stroke="none" fill="#00D8FF" fill-rule="nonzero" cx="269.529" cy="237.628" r="50.167"></circle>
                        <path d="M269.529,135.628 C336.885,135.628 399.457,145.293 446.636,161.535 C503.48,181.104 538.43,210.768 538.43,237.628 C538.43,265.619 501.389,297.131 440.347,317.356 C394.196,332.647 333.468,340.628 269.529,340.628 C203.975,340.628 141.899,333.136 95.239,317.187 C36.193,297.005 0.628,265.084 0.628,237.628 C0.628,210.986 33.998,181.552 90.043,162.012 C137.398,145.503 201.515,135.628 269.529,135.628 Z" id="Path" stroke="#00D8FF" stroke-width="24" fill="none"></path>
                        <path d="M180.736,186.922 C214.385,128.574 254.017,79.198 291.656,46.442 C337.006,6.976 380.163,-8.481 403.431,4.937 C427.679,18.92 436.473,66.751 423.498,129.733 C413.688,177.351 390.264,233.945 358.322,289.334 C325.573,346.122 288.072,396.153 250.945,428.606 C203.964,469.674 158.545,484.535 134.76,470.819 C111.681,457.509 102.854,413.898 113.926,355.586 C123.281,306.316 146.758,245.841 180.736,186.922 Z" id="Path" stroke="#00D8FF" stroke-width="24" fill="none"></path>
                        <path d="M180.821,289.482 C147.075,231.19 124.09,172.195 114.509,123.227 C102.965,64.228 111.127,19.118 134.373,5.661 C158.597,-8.363 204.428,7.905 252.513,50.601 C288.869,82.881 326.201,131.438 358.236,186.774 C391.08,243.507 415.697,300.983 425.272,349.356 C437.389,410.569 427.581,457.34 403.819,471.096 C380.762,484.444 338.57,470.312 293.58,431.597 C255.567,398.886 214.898,348.344 180.821,289.482 Z" id="Path" stroke="#00D8FF" stroke-width="24" fill="none"></path>
                    </g>
                </g>
            </g>
            <g id="formik" transform="translate(14.000000, 9.000000)" fill="#FFFFFF" fill-rule="nonzero">
                <path d="M36.0897013,0 L45,5.06302674 L9.91029873,25 L1,19.9378814 L36.0897013,0 Z M45,6 L10.0009226,25.9214325 L10,36 L44.9990774,16.0794811 L44.9990774,6 L45,6 Z M31,26 L10.0018582,37.8956044 L10,48 L30.9981418,36.1025641 L31,26 L31,26 Z M23,42 L10.0018582,49.1671822 L10,59 L22.9981418,51.8328178 L23,42 Z M0.00369079352,21 L9,26.0525841 L8.9972319,36 L3.41060513e-13,30.9483173 L0.00369079352,21 Z M0.00373599004,33 L9,38.0117668 L8.99626401,48 L3.41060513e-13,42.9891383 L0.00373599004,33 Z M0.00373443983,44 L9,49.1221824 L8.99626556,60 L3.41060513e-13,54.8778176 L0.00373443983,44 Z M19.7872758,77 L11,71.8907585 L45.2127242,52 L54,57.1092415 L19.7872758,77 Z M10,71 L44.999076,51.088706 L45,41 L10.000924,60.911294 L10,71 Z M24,51 L44.9990709,39.1025641 L45,29 L24.0018582,40.8956044 L24,51 L24,51 Z M32,35 L44.9981418,27.8328178 L45,18 L32.0018582,25.1671822 L32,35 Z M54.9963092,56 L46,50.9474159 L46.0027681,41 L55,46.0525841 L54.9963092,56 Z M54.9962644,44 L46,38.9882332 L46.0037356,29 L55,34.0108617 L54.9962644,44 Z M54.9962656,32.9990638 L46,27.8145808 L46.0037344,17 L55,22.1854192 L54.9962656,33 L54.9962656,32.9990638 Z" id="Shape"></path>
            </g>
        </g>
    </g>
</svg>