<svg height="250" viewBox="0 0 500 250" width="500" xmlns="http://www.w3.org/2000/svg" xmlns:xlink="http://www.w3.org/1999/xlink"><defs><rect id="a" height="250" rx="8" width="500"/><text id="b" fill="#fff" font-family="Poppins-SemiBold, Poppins" font-size="30" font-weight="500"><tspan x="11.04" y="197">Formik Basics</tspan></text><filter id="c" height="132.6%" width="106.7%" x="-3.3%" y="-11.6%"><feOffset dx="0" dy="2" in="SourceAlpha" result="shadowOffsetOuter1"/><feGaussianBlur in="shadowOffsetOuter1" result="shadowBlurOuter1" stdDeviation="2"/><feColorMatrix in="shadowBlurOuter1" type="matrix" values="0 0 0 0 0   0 0 0 0 0   0 0 0 0 0  0 0 0 0.5 0"/></filter><mask id="d" fill="#fff"><use fill="#fff" fill-rule="evenodd" xlink:href="#a"/></mask></defs><g fill="none" fill-rule="evenodd"><use fill="#151515" xlink:href="#a"/><g mask="url(#d)" opacity=".5"><g transform="translate(201 19)"><circle cx="269.529" cy="237.628" fill="#00d8ff" fill-rule="nonzero" r="50.167"/><g fill="none" stroke="#00d8ff" stroke-width="24"><path d="m269.529 135.628c67.356 0 129.928 9.665 177.107 25.907 56.844 19.569 91.794 49.233 91.794 76.093 0 27.991-37.041 59.503-98.083 79.728-46.151 15.291-106.879 23.272-170.818 23.272-65.554 0-127.63-7.492-174.29-23.441-59.046-20.182-94.611-52.103-94.611-79.559 0-26.642 33.37-56.076 89.415-75.616 47.355-16.509 111.472-26.384 179.486-26.384z"/><path d="m180.736 186.922c33.649-58.348 73.281-107.724 110.92-140.48 45.35-39.466 88.507-54.923 111.775-41.505 24.248 13.983 33.042 61.814 20.067 124.796-9.81 47.618-33.234 104.212-65.176 159.601-32.749 56.788-70.25 106.819-107.377 139.272-46.981 41.068-92.4 55.929-116.185 42.213-23.079-13.31-31.906-56.921-20.834-115.233 9.355-49.27 32.832-109.745 66.81-168.664z"/><path d="m180.821 289.482c-33.746-58.292-56.731-117.287-66.312-166.255-11.544-58.999-3.382-104.109 19.864-117.566 24.224-14.024 70.055 2.244 118.14 44.94 36.356 32.28 73.688 80.837 105.723 136.173 32.844 56.733 57.461 114.209 67.036 162.582 12.117 61.213 2.309 107.984-21.453 121.74-23.057 13.348-65.249-.784-110.239-39.499-38.013-32.711-78.682-83.253-112.759-142.115z"/></g></g></g><g fill="#fff"><use filter="url(#c)" xlink:href="#b"/><use xlink:href="#b"/><text font-family="Poppins-Regular, Poppins" font-size="18"><tspan x="13.613" y="227">10 Lessons</tspan></text><path d="m36.0897013 0 8.9102987 5.06302674-35.08970127 19.93697326-8.91029873-5.0621186zm8.9102987 6-34.9990774 19.9214325-.0009226 10.0785675 34.9990774-19.9205189v-10.0794811zm-14 20-20.9981418 11.8956044-.0018582 10.1043956 20.9981418-11.8974359zm-8 16-12.9981418 7.1671822-.0018582 9.8328178 12.9981418-7.1671822zm-22.99630921-21 8.99630921 5.0525841-.0027681 9.9474159-8.9972319-5.0516827zm.0000452 12 8.99626401 5.0117668-.00373599 9.9882332-8.99626401-5.0108617zm-.00000155 11 8.99626556 5.1221824-.00373444 10.8778176-8.99626556-5.1221824zm19.78354136 33-8.7872758-5.1092415 34.2127242-19.8907585 8.7872758 5.1092415zm-9.7872758-6 34.999076-19.911294.000924-10.088706-34.999076 19.911294zm14-20 20.9990709-11.8974359.0009291-10.1025641-20.9981418 11.8956044zm8-16 12.9981418-7.1671822.0018582-9.8328178-12.9981418 7.1671822zm22.9963092 21-8.9963092-5.0525841.0027681-9.9474159 8.9972319 5.0525841zm-.0000448-12-8.9962644-5.0117668.0037356-9.9882332 8.9962644 5.0108617zm.0000012-11.0009362-8.9962656-5.184483.0037344-10.8145808 8.9962656 5.1854192-.0037344 10.8145808z" fill-rule="nonzero" transform="translate(14 9)"/></g></g></svg>