<svg height="250" viewBox="0 0 500 250" width="500" xmlns="http://www.w3.org/2000/svg" xmlns:xlink="http://www.w3.org/1999/xlink"><defs><rect id="a" height="250" rx="8" width="500"/><mask id="b" fill="#fff"><use fill="#fff" fill-rule="evenodd" xlink:href="#a"/></mask></defs><g fill="none" fill-rule="evenodd"><use fill="#151515" xlink:href="#a"/><g mask="url(#b)" opacity=".5"><g transform="translate(201 19)"><circle cx="269.529" cy="237.628" fill="#00d8ff" fill-rule="nonzero" r="50.167"/><g fill="none" stroke="#00d8ff" stroke-width="24"><path d="m269.529 135.628c67.356 0 129.928 9.665 177.107 25.907 56.844 19.569 91.794 49.233 91.794 76.093 0 27.991-37.041 59.503-98.083 79.728-46.151 15.291-106.879 23.272-170.818 23.272-65.554 0-127.63-7.492-174.29-23.441-59.046-20.182-94.611-52.103-94.611-79.559 0-26.642 33.37-56.076 89.415-75.616 47.355-16.509 111.472-26.384 179.486-26.384z"/><path d="m180.736 186.922c33.649-58.348 73.281-107.724 110.92-140.48 45.35-39.466 88.507-54.923 111.775-41.505 24.248 13.983 33.042 61.814 20.067 124.796-9.81 47.618-33.234 104.212-65.176 159.601-32.749 56.788-70.25 106.819-107.377 139.272-46.981 41.068-92.4 55.929-116.185 42.213-23.079-13.31-31.906-56.921-20.834-115.233 9.355-49.27 32.832-109.745 66.81-168.664z"/><path d="m180.821 289.482c-33.746-58.292-56.731-117.287-66.312-166.255-11.544-58.999-3.382-104.109 19.864-117.566 24.224-14.024 70.055 2.244 118.14 44.94 36.356 32.28 73.688 80.837 105.723 136.173 32.844 56.733 57.461 114.209 67.036 162.582 12.117 61.213 2.309 107.984-21.453 121.74-23.057 13.348-65.249-.784-110.239-39.499-38.013-32.711-78.682-83.253-112.759-142.115z"/></g></g></g><ellipse cx="38.002905" cy="36.912252" fill="#00d8ff" fill-rule="nonzero" rx="5.026007" ry="5.048252" stroke="#979797"/><g stroke="#00d8ff" stroke-width="2.4" transform="translate(11 13)"><path d="m27.0029054 13.6481006c6.7480965 0 13.0169054.9725786 17.7435584 2.6069937 5.6949462 1.9692076 9.1964304 4.9542642 9.1964304 7.6571573 0 2.8167044-3.7109721 5.9877232-9.8264972 8.0229434-4.6236623 1.5387169-10.7077291 2.3418364-17.1134916 2.3418364-6.5675622 0-12.7866791-.7539119-17.46133583-2.3588427-5.91555473-2.0308931-9.47865306-5.2430692-9.47865306-8.0059371 0-2.680956 3.3431911-5.642868 8.95808906-7.6091573 4.74428573-1.661283 11.16788123-2.6549937 17.98189983-2.6549937z"/><path d="m18.1071317 18.809761c3.3711429-5.8714968 7.3416958-10.84015094 11.1125789-14.13635219 4.5434137-3.97142139 8.8671206-5.52684277 11.1982375-4.17660378 2.4292987 1.40709434 3.3103302 6.22027673 2.010423 12.55808807-.9828201 4.7917484-3.3295659 10.4867421-6.5296921 16.060478-3.2809758 5.7145157-7.0380334 10.7490817-10.7576215 14.0147924-4.7068163 4.132629-9.2571428 5.6280755-11.6400556 4.2478491-2.3121819-1.3393711-3.1965195-5.7278994-2.0872654-11.5957736.9372357-4.9579874 3.2892913-11.043522 6.6933952-16.972478z"/><path d="m18.1156475 29.1302642c-3.3808609-5.8658617-5.6836252-11.8024655-6.6435028-16.7300629-1.1565417-5.93700633-.3388274-10.4763774 1.9900854-11.83054092 2.4268942-1.41122013 7.0184972.22581132 11.8359183 4.52226415 3.6423451 3.24830189 7.3824713 8.13454087 10.5919147 13.70294337 3.2904935 5.7089812 5.7567606 11.4927296 6.7160371 16.3604529 1.213948 6.1597987.2313284 10.8663144-2.1492802 12.250566-2.3099777 1.343195-6.5370055-.0788931-11.0443525-3.9747421-3.8083525-3.291673-7.8827977-8.3776604-11.29682-14.3008805z"/></g></g></svg>