<?xml version="1.0" encoding="UTF-8"?>
<svg width="500px" height="250px" viewBox="0 0 500 250" version="1.1" xmlns="http://www.w3.org/2000/svg" xmlns:xlink="http://www.w3.org/1999/xlink">
    <!-- Generator: Sketch 53.2 (72643) - https://sketchapp.com -->
    <title>React Hooks for Beginners Copy</title>
    <desc>Created with Sketch.</desc>
    <defs>
        <rect id="path-1" x="0" y="0" width="500" height="250" rx="8"></rect>
    </defs>
    <g id="Page-1" stroke="none" stroke-width="1" fill="none" fill-rule="evenodd">
        <g id="React-Hooks-for-Beginners-Copy">
            <g id="react">
                <mask id="mask-2" fill="white">
                    <use xlink:href="#path-1"></use>
                </mask>
                <use id="Mask" fill="#151515" xlink:href="#path-1"></use>
                <g opacity="0.5" mask="url(#mask-2)">
                    <g transform="translate(201.000000, 19.000000)">
                        <circle id="Oval" stroke="none" fill="#00D8FF" fill-rule="nonzero" cx="269.529" cy="237.628" r="50.167"></circle>
                        <path d="M269.529,135.628 C336.885,135.628 399.457,145.293 446.636,161.535 C503.48,181.104 538.43,210.768 538.43,237.628 C538.43,265.619 501.389,297.131 440.347,317.356 C394.196,332.647 333.468,340.628 269.529,340.628 C203.975,340.628 141.899,333.136 95.239,317.187 C36.193,297.005 0.628,265.084 0.628,237.628 C0.628,210.986 33.998,181.552 90.043,162.012 C137.398,145.503 201.515,135.628 269.529,135.628 Z" id="Path" stroke="#00D8FF" stroke-width="24" fill="none"></path>
                        <path d="M180.736,186.922 C214.385,128.574 254.017,79.198 291.656,46.442 C337.006,6.976 380.163,-8.481 403.431,4.937 C427.679,18.92 436.473,66.751 423.498,129.733 C413.688,177.351 390.264,233.945 358.322,289.334 C325.573,346.122 288.072,396.153 250.945,428.606 C203.964,469.674 158.545,484.535 134.76,470.819 C111.681,457.509 102.854,413.898 113.926,355.586 C123.281,306.316 146.758,245.841 180.736,186.922 Z" id="Path" stroke="#00D8FF" stroke-width="24" fill="none"></path>
                        <path d="M180.821,289.482 C147.075,231.19 124.09,172.195 114.509,123.227 C102.965,64.228 111.127,19.118 134.373,5.661 C158.597,-8.363 204.428,7.905 252.513,50.601 C288.869,82.881 326.201,131.438 358.236,186.774 C391.08,243.507 415.697,300.983 425.272,349.356 C437.389,410.569 427.581,457.34 403.819,471.096 C380.762,484.444 338.57,470.312 293.58,431.597 C255.567,398.886 214.898,348.344 180.821,289.482 Z" id="Path" stroke="#00D8FF" stroke-width="24" fill="none"></path>
                    </g>
                </g>
            </g>
            <g id="react" transform="translate(11.000000, 13.000000)">
                <ellipse id="Oval" stroke="#979797" fill="#00D8FF" fill-rule="nonzero" cx="27.0029054" cy="23.9122516" rx="5.02600742" ry="5.04825157"></ellipse>
                <path d="M27.0029054,13.6481006 C33.7510019,13.6481006 40.0198108,14.6206792 44.7464638,16.2550943 C50.44141,18.2243019 53.9428942,21.2093585 53.9428942,23.9122516 C53.9428942,26.728956 50.2319221,29.8999748 44.116397,31.935195 C39.4927347,33.4739119 33.4086679,34.2770314 27.0029054,34.2770314 C20.4353432,34.2770314 14.2162263,33.5231195 9.54156957,31.9181887 C3.62601484,29.8872956 0.0629165121,26.6751195 0.0629165121,23.9122516 C0.0629165121,21.2312956 3.40610761,18.2693836 9.02100557,16.3030943 C13.7652913,14.6418113 20.1888868,13.6481006 27.0029054,13.6481006 Z" id="Path" stroke="#00D8FF" stroke-width="2.4"></path>
                <path d="M18.1071317,18.809761 C21.4782746,12.9382642 25.4488275,7.96961006 29.2197106,4.67340881 C33.7631243,0.701987421 38.0868312,-0.853433962 40.4179481,0.496805031 C42.8472468,1.90389937 43.7282783,6.71708176 42.4283711,13.0548931 C41.445551,17.8466415 39.0988052,23.5416352 35.898679,29.1153711 C32.6177032,34.8298868 28.8606456,39.8644528 25.1410575,43.1301635 C20.4342412,47.2627925 15.8839147,48.758239 13.5010019,47.3780126 C11.18882,46.0386415 10.3044824,41.6501132 11.4137365,35.782239 C12.3509722,30.8242516 14.7030278,24.738717 18.1071317,18.809761 Z" id="Path" stroke="#00D8FF" stroke-width="2.4"></path>
                <path d="M18.1156475,29.1302642 C14.7347866,23.2644025 12.4320223,17.3277987 11.4721447,12.4002013 C10.315603,6.46319497 11.1333173,1.9238239 13.4622301,0.569660377 C15.8891243,-0.841559748 20.4807273,0.795471698 25.2981484,5.09192453 C28.9404935,8.34022642 32.6806197,13.2264654 35.8900631,18.7948679 C39.1805566,24.5038491 41.6468237,30.2875975 42.6061002,35.1553208 C43.8200482,41.3151195 42.8374286,46.0216352 40.45682,47.4058868 C38.1468423,48.7490818 33.9198145,47.3269937 29.4124675,43.4311447 C25.604115,40.1394717 21.5296698,35.0534843 18.1156475,29.1302642 Z" id="Path" stroke="#00D8FF" stroke-width="2.4"></path>
            </g>
        </g>
    </g>
</svg>